<?xml version="1.0" standalone="no"?>
<!DOCTYPE svg PUBLIC "-//W3C//DTD SVG 20010904//EN"
 "http://www.w3.org/TR/2001/REC-SVG-20010904/DTD/svg10.dtd">
<svg version="1.0" xmlns="http://www.w3.org/2000/svg"
 width="600.000000pt" height="600.000000pt" viewBox="0 0 600.000000 600.000000"
 preserveAspectRatio="xMidYMid meet">
<metadata>
Created by potrace 1.11, written by Peter Selinger 2001-2013
</metadata>
<g transform="translate(0.000000,600.000000) scale(0.100000,-0.100000)"
fill="#000000" stroke="none">
<path d="M3067 5373 c-3 -5 -51 -8 -106 -8 -56 1 -101 -2 -101 -5 0 -3 -25 -6
-55 -6 -30 1 -55 -2 -55 -6 0 -4 -8 -6 -17 -6 -10 1 -40 -2 -68 -7 -27 -4 -57
-8 -65 -9 -9 -1 -21 -5 -28 -10 -7 -4 -20 -2 -29 6 -12 9 -15 9 -9 1 5 -9 0
-13 -13 -13 -12 0 -23 1 -24 3 -2 1 -11 -4 -20 -12 -10 -7 -17 -11 -17 -8 0 4
-18 0 -40 -8 -30 -11 -40 -11 -40 -2 0 8 -3 7 -9 -2 -5 -8 -17 -16 -25 -18
-35 -7 -41 -9 -53 -16 -7 -5 -13 -5 -13 0 0 4 -4 2 -9 -5 -4 -7 -18 -14 -29
-15 -12 -1 -22 -4 -22 -7 0 -6 -8 -8 -49 -12 -11 -1 -19 -5 -18 -9 1 -4 0 -6
-3 -6 -3 1 -19 -8 -37 -21 -17 -12 -39 -22 -48 -22 -9 0 -13 -4 -10 -10 3 -5
-1 -10 -9 -10 -9 0 -16 -5 -16 -11 0 -6 -7 -9 -15 -5 -9 3 -15 0 -15 -10 0
-11 -6 -14 -16 -10 -8 3 -12 2 -9 -4 3 -6 -1 -10 -9 -10 -9 0 -16 -4 -16 -10
0 -5 -9 -14 -20 -20 -15 -8 -27 -6 -51 9 -18 11 -36 18 -41 15 -4 -3 -8 -1 -8
4 0 5 -6 9 -12 9 -7 1 -31 4 -53 8 -22 3 -44 6 -50 6 -37 -1 -97 -13 -128 -26
-21 -8 -37 -13 -37 -10 0 3 -9 -3 -19 -12 -40 -37 -56 -48 -63 -46 -5 2 -8 -2
-8 -7 0 -6 -13 -24 -29 -39 -16 -16 -27 -31 -24 -35 3 -3 -2 -12 -11 -21 -9
-9 -16 -23 -16 -31 0 -8 -3 -13 -7 -11 -5 3 -9 -5 -9 -16 -3 -41 -12 -62 -24
-59 -6 1 -9 -2 -5 -8 3 -6 10 -8 14 -6 3 3 7 -4 7 -15 0 -10 -5 -19 -11 -19
-5 0 -3 -5 5 -10 13 -9 13 -10 0 -10 -13 0 -13 -1 0 -10 8 -5 11 -10 6 -10 -5
0 -2 -8 5 -17 8 -9 9 -14 2 -10 -6 4 -3 -11 8 -32 10 -22 22 -41 26 -43 5 -3
1 -3 -7 -1 -10 2 -8 -2 4 -12 11 -8 24 -15 29 -15 5 0 7 -9 4 -19 -3 -14 -1
-18 9 -14 9 3 14 -2 15 -13 0 -12 3 -14 6 -6 4 9 10 7 23 -8 10 -12 22 -21 27
-21 14 -1 17 -9 3 -9 -7 0 -10 -3 -7 -6 4 -4 14 -1 23 7 15 12 16 11 10 -11
-7 -23 -6 -24 8 -7 14 18 15 18 23 0 13 -26 10 -49 -7 -45 -10 2 -11 0 -2 -11
9 -10 9 -16 0 -25 -9 -9 -9 -12 1 -12 9 0 10 -4 4 -12 -5 -7 -10 -26 -11 -41
-1 -15 -7 -37 -12 -48 -6 -10 -7 -19 -3 -19 5 0 7 -18 5 -39 -3 -31 -7 -39
-20 -35 -14 5 -14 4 1 -6 9 -6 15 -16 11 -21 -3 -5 -6 -63 -6 -129 -1 -65 -4
-117 -8 -115 -4 2 -7 -2 -7 -10 0 -8 4 -12 9 -9 13 8 9 -71 -4 -85 -11 -10
-10 -12 1 -9 21 4 21 -83 1 -100 -13 -10 -13 -11 3 -6 15 6 17 1 14 -30 -2
-20 0 -36 5 -36 5 0 4 -10 -3 -21 -6 -12 -7 -19 -2 -16 5 3 10 -13 11 -36 1
-23 4 -52 6 -64 3 -14 0 -23 -7 -23 -8 0 -8 -3 -2 -8 13 -9 14 -15 21 -119 3
-49 7 -94 9 -100 2 -7 -4 -17 -13 -23 -15 -10 -15 -11 0 -6 14 4 16 -2 15 -37
-1 -23 -6 -45 -12 -49 -6 -5 -4 -8 5 -8 11 0 15 -11 15 -39 0 -38 -7 -44 -34
-27 -9 6 -12 5 -8 -1 4 -6 -5 -10 -21 -11 -49 -2 -132 -29 -178 -59 -11 -7
-24 -10 -29 -6 -4 5 -5 3 -1 -4 4 -7 -4 -22 -19 -35 -14 -12 -25 -30 -25 -39
0 -10 -4 -20 -9 -23 -5 -3 -9 -22 -8 -42 1 -20 3 -32 5 -25 6 17 32 -6 32 -28
0 -9 7 -26 15 -37 8 -12 11 -24 7 -28 -3 -4 2 -4 12 0 12 5 17 4 13 -3 -7 -12
62 -11 82 1 8 5 17 3 22 -5 7 -11 9 -10 9 5 0 18 1 18 28 0 21 -13 24 -14 14
-2 -10 13 -10 19 3 32 15 15 29 20 48 17 4 0 7 6 7 14 0 9 6 12 15 8 14 -5 14
-8 -2 -27 -14 -15 -14 -18 -2 -8 14 11 17 9 17 -13 0 -14 -5 -22 -11 -18 -6 4
-7 1 -2 -7 12 -20 6 -113 -8 -122 -9 -6 -9 -8 1 -8 6 0 12 -5 12 -11 0 -5 -6
-7 -12 -3 -9 5 -9 2 1 -9 7 -9 9 -17 4 -17 -5 0 -7 -16 -5 -36 3 -24 1 -34 -6
-30 -6 3 -14 2 -17 -4 -4 -6 -1 -9 7 -8 8 2 12 -5 11 -17 -6 -48 -15 -228 -16
-321 -1 -86 -4 -101 -17 -97 -13 4 -13 3 -1 -5 11 -8 15 -35 16 -100 1 -49 5
-94 9 -100 3 -6 2 -14 -4 -17 -8 -5 -8 -11 -1 -19 6 -7 12 -43 13 -79 2 -37 6
-67 11 -67 4 0 7 -7 7 -16 0 -9 -5 -13 -12 -9 -7 4 -5 0 4 -7 15 -13 15 -15 0
-26 -15 -10 -15 -11 2 -5 13 4 17 3 13 -4 -4 -6 -1 -14 5 -16 10 -4 10 -6 0
-6 -10 -1 -9 -5 3 -17 13 -13 13 -19 3 -32 -8 -9 -8 -13 -2 -9 7 4 15 -1 18
-10 4 -9 2 -20 -4 -23 -8 -5 -6 -9 5 -14 9 -3 13 -10 10 -16 -3 -5 -1 -10 6
-10 8 0 9 -3 0 -14 -9 -10 -8 -16 4 -26 11 -9 12 -16 5 -26 -9 -10 -7 -11 9
-7 13 3 21 1 21 -6 0 -7 -6 -9 -12 -6 -7 4 -6 1 3 -7 21 -17 50 -74 42 -82 -4
-3 -1 -6 5 -6 6 0 26 -21 43 -47 18 -27 36 -49 41 -51 4 -2 8 -8 8 -13 0 -6
-5 -7 -12 -3 -7 4 -8 3 -4 -4 4 -6 13 -9 20 -6 9 3 17 -3 21 -15 3 -12 11 -19
16 -16 5 3 6 -1 3 -10 -4 -10 -2 -15 6 -13 7 2 15 -4 18 -12 2 -8 1 -12 -3 -8
-4 4 -16 -2 -26 -14 -11 -11 -19 -17 -19 -13 0 4 -11 -4 -25 -19 -13 -14 -27
-26 -30 -26 -3 0 -18 -12 -32 -27 -14 -16 -30 -27 -35 -25 -5 1 -7 -2 -4 -7 3
-5 -4 -20 -15 -35 -11 -14 -17 -26 -14 -26 4 0 3 -6 -2 -12 -11 -15 -10 -49 2
-93 5 -17 8 -33 7 -37 -1 -5 7 -8 18 -8 11 0 20 -4 20 -10 0 -5 8 -10 18 -11
14 0 14 -2 -3 -9 -17 -7 -17 -9 -2 -9 9 -1 17 -7 17 -13 0 -9 4 -8 10 2 8 13
10 12 10 -2 0 -10 3 -17 8 -17 18 3 24 -2 13 -14 -8 -10 -7 -14 4 -14 8 0 12
4 9 9 -3 4 0 8 5 8 21 0 26 2 38 12 9 7 14 6 17 -3 12 -38 15 -41 13 -15 -1
16 4 31 11 33 8 3 10 -1 5 -14 -8 -23 7 -10 21 19 8 15 21 23 38 23 14 0 30 4
34 8 5 4 1 5 -9 1 -10 -3 -17 -1 -17 5 0 10 14 15 32 12 5 0 7 2 7 7 -3 19 2
33 10 27 5 -3 7 -18 5 -32 -3 -15 -2 -25 1 -21 4 3 8 14 9 25 2 10 11 17 20
17 8 -1 13 3 10 8 -3 5 -12 7 -20 4 -21 -8 -17 8 7 22 17 11 23 11 36 0 14
-12 15 -11 5 8 -9 18 -9 24 3 34 9 7 18 10 21 7 4 -3 13 0 20 8 21 21 87 28
133 14 22 -6 38 -15 36 -19 -3 -5 2 -11 11 -14 8 -3 12 -2 9 4 -3 6 1 7 9 4 9
-3 13 -11 9 -18 -4 -8 -2 -8 7 1 13 12 43 6 35 -7 -3 -5 -1 -11 5 -15 5 -3 10
1 10 11 0 13 3 14 15 4 8 -6 19 -9 25 -5 16 10 12 -6 -7 -28 -18 -19 -17 -19
5 -6 12 8 22 17 22 20 0 4 9 5 20 2 11 -3 20 -10 20 -15 0 -6 6 -6 14 1 8 7
17 8 20 3 3 -5 20 -10 38 -11 18 -1 39 -3 46 -3 7 -1 11 -7 8 -15 -6 -14 -4
-15 34 -17 14 0 29 -5 33 -11 5 -6 7 -4 4 5 -2 9 -14 15 -30 14 -15 -1 -27 3
-27 8 0 13 62 2 71 -14 7 -11 9 -11 9 0 0 11 10 12 43 7 23 -4 55 -6 70 -6 17
1 26 -3 22 -9 -3 -6 -10 -8 -15 -5 -5 3 -11 1 -14 -4 -7 -11 14 -9 34 4 17 11
100 14 100 3 0 -4 -7 -11 -16 -16 -15 -8 -15 -10 0 -15 12 -5 15 -3 10 5 -5 7
-2 9 8 5 11 -4 14 -1 11 11 -3 14 3 17 31 17 20 0 36 -4 36 -10 0 -5 5 -3 10
5 8 13 10 12 10 -2 0 -20 15 -24 26 -6 4 7 3 8 -4 4 -7 -4 -12 -3 -12 1 0 5
26 9 58 10 31 0 66 4 76 9 14 5 17 4 12 -4 -4 -7 -2 -12 4 -12 6 0 9 -4 6 -8
-3 -5 1 -9 9 -9 11 0 12 4 4 13 -7 8 -7 14 1 19 5 3 10 0 10 -7 0 -11 2 -11 9
0 4 8 31 14 64 15 32 1 57 6 57 11 0 4 8 2 17 -5 9 -8 14 -9 10 -3 -4 7 0 14
8 18 8 3 17 0 21 -6 4 -6 3 -8 -2 -5 -6 3 -11 -4 -11 -16 -2 -19 0 -18 16 6
16 24 19 26 31 12 7 -8 17 -15 23 -15 6 0 2 7 -9 15 -15 11 -6 24 9 13 2 -2
10 2 18 8 8 6 24 10 37 9 12 -1 22 2 22 7 0 5 5 6 10 3 8 -5 7 -12 -2 -23 -12
-15 -11 -16 4 -3 10 7 16 17 13 21 -5 9 45 22 92 24 18 1 36 6 40 10 4 5 -3 5
-16 1 -16 -5 -21 -4 -17 4 4 6 13 11 20 11 8 0 38 11 69 24 30 14 58 22 61 19
3 -4 6 -1 6 6 0 7 4 10 10 6 5 -3 7 -13 4 -23 -5 -15 -5 -15 6 1 6 9 8 22 5
27 -3 6 -2 10 4 10 5 0 12 -6 14 -12 3 -8 6 -5 6 5 1 10 6 15 11 12 7 -4 6
-14 -1 -28 -10 -21 -10 -21 5 -3 9 11 19 17 22 13 4 -4 1 -13 -6 -22 -7 -9 -8
-15 -2 -15 6 0 12 5 14 12 3 8 15 2 32 -15 23 -23 25 -31 16 -42 -9 -11 -9
-15 -1 -15 6 0 11 5 11 10 0 6 5 10 10 10 6 0 10 -7 10 -15 0 -8 5 -15 10 -15
6 0 10 -5 10 -11 0 -5 -4 -8 -9 -5 -11 7 -8 -21 4 -31 4 -4 5 -3 1 4 -3 6 -2
14 3 17 9 6 55 -30 57 -45 1 -5 3 -12 4 -16 1 -5 2 -11 1 -15 0 -5 4 -8 9 -8
14 0 13 13 -2 28 -7 7 -9 12 -4 12 4 0 14 -7 23 -15 8 -8 19 -13 24 -10 5 4 9
1 9 -5 0 -6 8 -10 18 -8 9 1 23 -2 31 -6 11 -7 13 -5 8 7 -4 11 -2 14 9 10 17
-6 18 -15 2 -33 -10 -11 -9 -11 6 0 11 8 20 13 22 10 1 -3 6 -1 11 4 4 5 3 6
-3 3 -21 -12 -23 19 -3 37 23 19 33 21 24 4 -6 -12 3 -2 38 43 20 25 39 62 30
56 -5 -3 -8 7 -7 21 1 15 -5 42 -12 60 -7 17 -11 32 -8 32 3 0 -1 7 -8 15 -29
33 -38 45 -38 54 0 5 -7 12 -16 15 -8 3 -12 11 -8 17 4 7 3 9 -3 6 -9 -6 -93
64 -93 77 0 4 5 4 10 1 6 -3 10 -1 10 5 0 18 29 42 41 34 7 -4 9 -3 5 4 -7 12
14 63 24 57 4 -2 12 7 18 20 7 14 17 25 23 25 6 0 9 7 5 15 -3 8 -1 15 4 15 6
0 10 6 10 14 0 8 5 18 12 22 6 4 8 3 4 -4 -3 -6 -2 -13 3 -17 6 -3 8 4 6 16
-2 12 5 41 15 65 11 23 20 47 20 52 0 5 7 15 15 22 8 7 12 16 9 21 -3 5 0 9 6
9 6 0 9 4 6 9 -4 5 0 12 6 14 10 4 9 6 -1 6 -10 1 -11 4 -2 14 6 8 12 22 14
33 1 10 6 25 11 32 4 7 5 16 2 19 -3 3 -1 13 4 23 5 9 12 32 15 51 3 19 10 50
15 69 14 54 22 103 21 128 -1 13 3 21 8 17 5 -3 13 -1 16 5 4 6 1 9 -6 8 -17
-4 -12 64 5 74 7 5 7 8 0 8 -6 0 -10 16 -10 35 1 26 5 34 15 30 11 -4 11 -3 2
9 -7 8 -10 20 -7 25 4 5 2 12 -3 16 -6 3 -7 13 -4 21 3 8 6 32 7 52 1 24 6 36
15 34 7 -1 10 2 6 8 -3 6 -11 8 -16 5 -5 -4 -9 -2 -9 4 0 5 6 12 13 14 8 4 9
6 0 6 -7 1 -10 11 -7 27 3 18 1 23 -7 18 -8 -5 -9 -3 -3 7 5 8 9 19 9 24 1 6
7 9 14 7 7 -1 10 2 6 8 -3 6 -11 8 -16 5 -13 -9 -11 9 4 24 10 11 9 12 -2 6
-11 -6 -13 -4 -8 8 3 9 1 18 -6 21 -9 3 -9 5 0 5 7 1 10 11 7 27 -3 19 -1 24
8 19 7 -4 4 1 -6 9 -11 9 -14 16 -7 16 7 0 9 5 5 11 -4 7 -8 54 -10 106 -3 72
-1 92 9 87 8 -5 7 -2 -2 9 -15 19 -22 79 -11 97 4 7 13 3 25 -10 10 -11 22
-17 26 -14 5 3 9 0 9 -6 0 -6 4 -9 9 -5 5 3 12 1 16 -5 4 -6 11 -8 16 -5 5 4
12 0 15 -9 3 -9 12 -12 21 -9 12 5 14 2 9 -8 -4 -8 0 -5 8 5 9 11 16 16 16 12
0 -4 14 1 30 11 17 9 30 24 30 33 0 8 11 32 25 53 14 20 23 37 19 37 -3 0 0 8
7 17 8 9 9 14 3 10 -7 -4 -14 3 -18 19 -6 22 -96 124 -96 109 0 -3 -13 1 -29
10 -17 8 -38 16 -48 18 -10 1 -24 6 -30 10 -7 5 -17 6 -21 3 -5 -3 -21 1 -36
9 -18 10 -25 10 -20 2 4 -7 3 -8 -2 -4 -5 5 -10 45 -10 90 -1 45 -2 100 -3
122 -1 22 -1 64 -1 93 0 29 -1 56 -1 60 -1 4 0 9 1 12 8 21 6 40 -3 40 -8 0
-8 3 -2 8 12 9 14 122 1 115 -5 -3 -6 0 -4 8 3 8 12 13 19 11 8 -1 5 4 -5 13
-12 9 -15 15 -7 15 11 0 11 3 1 15 -9 11 -9 15 -1 15 7 0 9 5 6 11 -12 18 -13
59 -1 59 6 0 5 4 -3 9 -9 6 -10 10 -2 16 8 4 9 11 2 18 -14 18 -14 29 1 38 10
7 10 9 1 9 -7 0 -13 7 -13 15 0 8 6 15 13 15 9 0 9 2 0 8 -8 5 -13 44 -15 115
-2 59 -5 107 -8 107 -3 0 -6 19 -7 43 -1 23 -4 55 -8 70 -3 18 -2 26 5 22 6
-3 7 0 4 9 -3 9 -10 16 -14 16 -4 0 -7 14 -6 30 1 17 -1 30 -6 30 -4 0 -5 7
-2 15 3 8 2 20 -2 27 -5 7 -9 27 -10 45 0 18 -7 40 -15 50 -9 11 -10 14 -1 9
6 -4 12 -2 12 3 0 6 -4 11 -8 11 -4 0 -9 11 -10 26 -1 14 2 23 8 19 6 -3 10
-1 10 6 0 7 3 10 6 6 3 -3 15 3 26 13 11 10 27 16 36 13 10 -4 13 -2 8 5 -6
11 5 16 26 13 4 0 5 6 2 13 -3 9 3 17 15 21 12 4 18 11 15 17 -5 7 -1 9 9 5
11 -4 14 -2 10 9 -3 8 3 22 13 30 11 9 13 12 5 8 -10 -5 -12 -3 -7 5 5 7 15
10 23 6 13 -4 14 -3 3 10 -10 12 -9 20 5 41 9 15 13 24 9 21 -10 -6 -10 55 0
71 3 6 2 13 -3 17 -5 3 -8 14 -6 25 2 11 0 22 -6 25 -5 4 -9 15 -9 26 0 10 -5
19 -11 19 -5 0 -8 4 -5 8 3 5 -6 25 -19 45 -14 20 -25 41 -25 48 0 7 -3 10 -6
6 -9 -9 -44 25 -37 36 3 6 1 7 -5 3 -6 -3 -16 0 -24 7 -31 31 -109 59 -171 61
-36 2 -70 7 -77 11 -9 5 -11 4 -6 -3 7 -11 -17 -16 -61 -15 -7 1 -10 -3 -7 -8
2 -5 -7 -11 -21 -15 -14 -3 -25 -11 -25 -17 0 -5 -10 -2 -22 9 -16 13 -19 14
-10 2 10 -13 10 -18 1 -24 -7 -4 -15 -2 -17 4 -2 7 -10 12 -17 12 -8 0 -20 9
-28 20 -8 11 -17 17 -20 13 -4 -3 -7 1 -7 10 0 10 -6 14 -13 11 -8 -3 -20 2
-27 11 -7 8 -19 15 -26 15 -8 0 -14 5 -14 10 0 6 -3 9 -7 9 -15 -3 -73 23 -73
33 0 5 -4 7 -9 3 -5 -3 -12 -1 -16 5 -4 6 -11 8 -16 5 -5 -4 -9 -2 -9 4 0 6
-7 8 -15 5 -8 -4 -15 -1 -15 6 0 6 -4 8 -10 5 -5 -3 -10 -1 -10 5 0 6 -4 9 -9
6 -5 -3 -28 1 -51 9 -23 8 -55 15 -71 15 -15 0 -30 4 -33 8 -3 5 -24 9 -46 10
-23 1 -49 6 -58 10 -9 5 -24 8 -32 7 -8 -1 -21 4 -29 9 -11 8 -13 8 -8 0 3 -6
-1 -11 -9 -11 -9 0 -13 6 -9 15 4 11 2 12 -8 4 -16 -13 -77 -13 -77 1 0 5 -6
5 -13 -2 -10 -8 -17 -7 -25 1 -9 9 -12 9 -12 -1 0 -9 -4 -10 -12 -4 -7 6 -32
9 -55 8 -24 -2 -40 1 -37 6 3 5 3 9 0 9 -3 0 -7 -3 -9 -7z m-1427 -3993 c0 -5
-2 -10 -4 -10 -3 0 -8 5 -11 10 -3 6 -1 10 4 10 6 0 11 -4 11 -10z"/>
<path d="M1355 4601 c-3 -5 -2 -12 3 -15 5 -3 9 1 9 9 0 17 -3 19 -12 6z"/>
<path d="M4493 4585 c0 -8 4 -12 9 -9 5 3 6 10 3 15 -9 13 -12 11 -12 -6z"/>
<path d="M1470 4486 c0 -8 4 -17 9 -20 5 -4 7 3 4 14 -6 23 -13 26 -13 6z"/>
<path d="M4450 3701 c0 -6 4 -13 10 -16 6 -3 7 1 4 9 -7 18 -14 21 -14 7z"/>
<path d="M4455 3249 c-4 -6 -5 -12 -2 -15 2 -3 7 2 10 11 7 17 1 20 -8 4z"/>
<path d="M4729 2803 c-13 -16 -12 -17 4 -4 9 7 17 15 17 17 0 8 -8 3 -21 -13z"/>
<path d="M4476 2751 c-3 -5 1 -11 9 -14 9 -4 12 -1 8 9 -6 16 -10 17 -17 5z"/>
<path d="M1505 2729 c-4 -6 -4 -13 -1 -16 3 -4 6 -1 6 5 0 6 8 13 18 15 15 4
15 5 0 6 -9 0 -20 -4 -23 -10z"/>
<path d="M4506 2722 c-3 -5 1 -9 9 -9 8 0 15 4 15 9 0 4 -4 8 -9 8 -6 0 -12
-4 -15 -8z"/>
<path d="M1535 2700 c-3 -5 -1 -10 4 -10 6 0 11 5 11 10 0 6 -2 10 -4 10 -3 0
-8 -4 -11 -10z"/>
<path d="M4655 2700 c3 -5 8 -10 11 -10 2 0 4 5 4 10 0 6 -5 10 -11 10 -5 0
-7 -4 -4 -10z"/>
<path d="M1420 2693 c0 -6 8 -17 18 -24 16 -13 16 -13 2 6 -8 11 -16 22 -17
24 -2 2 -3 0 -3 -6z"/>
<path d="M1390 2685 c0 -5 5 -17 10 -25 5 -8 10 -10 10 -5 0 6 -5 17 -10 25
-5 8 -10 11 -10 5z"/>
<path d="M4570 2686 c0 -2 7 -7 16 -10 8 -3 12 -2 9 4 -6 10 -25 14 -25 6z"/>
<path d="M4630 2686 c0 -2 7 -7 16 -10 8 -3 12 -2 9 4 -6 10 -25 14 -25 6z"/>
<path d="M1337 2673 c-3 -5 6 -9 20 -10 19 -1 22 1 12 8 -17 11 -26 11 -32 2z"/>
<path d="M4490 2559 c0 -5 5 -7 10 -4 6 3 10 8 10 11 0 2 -4 4 -10 4 -5 0 -10
-5 -10 -11z"/>
<path d="M4490 2520 c0 -5 5 -10 11 -10 5 0 7 5 4 10 -3 6 -8 10 -11 10 -2 0
-4 -4 -4 -10z"/>
<path d="M1536 2507 c3 -10 9 -15 12 -12 3 3 0 11 -7 18 -10 9 -11 8 -5 -6z"/>
<path d="M4490 2000 c0 -5 5 -10 11 -10 5 0 7 5 4 10 -3 6 -8 10 -11 10 -2 0
-4 -4 -4 -10z"/>
<path d="M4456 1735 c-9 -26 -7 -32 5 -12 6 10 9 21 6 23 -2 3 -7 -2 -11 -11z"/>
<path d="M4396 1513 c-6 -14 -5 -15 5 -6 7 7 10 15 7 18 -3 3 -9 -2 -12 -12z"/>
<path d="M4255 1209 c-4 -6 -5 -12 -2 -15 2 -3 7 2 10 11 7 17 1 20 -8 4z"/>
<path d="M1686 1202 c-2 -4 4 -8 14 -8 10 0 16 4 14 8 -3 4 -9 8 -14 8 -5 0
-11 -4 -14 -8z"/>
<path d="M4210 1166 c0 -2 7 -7 16 -10 8 -3 12 -2 9 4 -6 10 -25 14 -25 6z"/>
<path d="M4175 1099 c-4 -6 -5 -12 -2 -15 2 -3 7 2 10 11 7 17 1 20 -8 4z"/>
<path d="M1790 1085 c0 -5 5 -17 10 -25 5 -8 10 -10 10 -5 0 6 -5 17 -10 25
-5 8 -10 11 -10 5z"/>
<path d="M4336 835 c-9 -26 -7 -32 5 -12 6 10 9 21 6 23 -2 3 -7 -2 -11 -11z"/>
<path d="M3750 820 c0 -5 5 -10 10 -10 6 0 10 5 10 10 0 6 -4 10 -10 10 -5 0
-10 -4 -10 -10z"/>
<path d="M2188 813 c6 -2 18 -2 25 0 6 3 1 5 -13 5 -14 0 -19 -2 -12 -5z"/>
<path d="M3933 805 c0 -8 4 -15 9 -15 4 0 8 4 8 9 0 6 -4 12 -8 15 -5 3 -9 -1
-9 -9z"/>
<path d="M2126 798 c3 -4 9 -8 15 -8 5 0 9 4 9 8 0 5 -7 9 -15 9 -8 0 -12 -4
-9 -9z"/>
<path d="M2066 782 c-3 -5 1 -9 9 -9 8 0 15 4 15 9 0 4 -4 8 -9 8 -6 0 -12 -4
-15 -8z"/>
<path d="M2250 780 c0 -5 5 -10 11 -10 5 0 7 5 4 10 -3 6 -8 10 -11 10 -2 0
-4 -4 -4 -10z"/>
<path d="M2287 759 c7 -7 15 -10 18 -7 3 3 -2 9 -12 12 -14 6 -15 5 -6 -5z"/>
<path d="M3606 758 c3 -5 10 -6 15 -3 13 9 11 12 -6 12 -8 0 -12 -4 -9 -9z"/>
<path d="M3645 760 c-3 -6 1 -7 9 -4 18 7 21 14 7 14 -6 0 -13 -4 -16 -10z"/>
<path d="M3510 740 c0 -5 5 -10 10 -10 6 0 10 5 10 10 0 6 -4 10 -10 10 -5 0
-10 -4 -10 -10z"/>
<path d="M2450 731 c0 -7 -4 -9 -10 -6 -5 3 -10 1 -10 -4 0 -6 4 -11 9 -11 13
0 25 20 17 27 -3 4 -6 1 -6 -6z"/>
<path d="M2490 720 c0 -5 5 -10 10 -10 6 0 10 5 10 10 0 6 -4 10 -10 10 -5 0
-10 -4 -10 -10z"/>
<path d="M3480 726 c0 -2 7 -7 16 -10 8 -3 12 -2 9 4 -6 10 -25 14 -25 6z"/>
<path d="M2515 700 c-3 -5 -1 -10 4 -10 6 0 11 5 11 10 0 6 -2 10 -4 10 -3 0
-8 -4 -11 -10z"/>
<path d="M3315 701 c-3 -5 -2 -12 3 -15 5 -3 9 1 9 9 0 17 -3 19 -12 6z"/>
<path d="M3416 702 c-3 -5 1 -9 9 -9 8 0 12 4 9 9 -3 4 -7 8 -9 8 -2 0 -6 -4
-9 -8z"/>
<path d="M2705 687 c-14 -11 -15 -16 -5 -22 9 -6 11 -4 5 5 -6 10 -3 12 13 8
15 -4 19 -2 15 8 -6 17 -5 17 -28 1z"/>
<path d="M3241 684 c0 -11 3 -14 6 -6 3 7 2 16 -1 19 -3 4 -6 -2 -5 -13z"/>
<path d="M3350 689 c0 -5 5 -7 10 -4 6 3 10 8 10 11 0 2 -4 4 -10 4 -5 0 -10
-5 -10 -11z"/>
<path d="M2766 677 c3 -10 9 -15 12 -12 3 3 0 11 -7 18 -10 9 -11 8 -5 -6z"/>
<path d="M2850 676 c0 -8 4 -18 10 -21 6 -3 7 1 4 10 -5 11 -2 14 12 9 16 -5
16 -4 4 5 -21 15 -30 14 -30 -3z"/>
<path d="M3146 682 c-2 -4 4 -8 14 -8 10 0 16 4 14 8 -3 4 -9 8 -14 8 -5 0
-11 -4 -14 -8z"/>
<path d="M4275 680 c-3 -5 -1 -10 4 -10 6 0 11 5 11 10 0 6 -2 10 -4 10 -3 0
-8 -4 -11 -10z"/>
<path d="M2997 669 c7 -7 15 -10 18 -7 3 3 -2 9 -12 12 -14 6 -15 5 -6 -5z"/>
<path d="M1667 659 c7 -7 15 -10 18 -7 3 3 -2 9 -12 12 -14 6 -15 5 -6 -5z"/>
<path d="M1905 649 c-4 -6 -4 -13 -1 -16 3 -4 6 -1 6 6 0 7 5 9 12 5 7 -4 8
-3 4 4 -9 15 -13 15 -21 1z"/>
<path d="M4095 641 c-3 -5 0 -13 6 -17 7 -4 9 -3 5 4 -3 5 0 13 6 15 9 4 10 6
1 6 -6 1 -14 -3 -18 -8z"/>
<path d="M4140 636 c0 -2 7 -6 15 -10 8 -3 15 -1 15 4 0 6 -7 10 -15 10 -8 0
-15 -2 -15 -4z"/>
<path d="M1800 606 c0 -2 8 -10 18 -17 15 -13 16 -12 3 4 -13 16 -21 21 -21
13z"/>
</g>
</svg>
